<?xml version="1.0" encoding="UTF-8" standalone="no"?><!DOCTYPE svg PUBLIC "-//W3C//DTD SVG 1.1//EN" "http://www.w3.org/Graphics/SVG/1.1/DTD/svg11.dtd"><!-- Generated by graphviz version 2.40.1 (20161225.0304) --><!-- Title: G Pages: 1 --><svg width="472pt" height="172pt" viewBox="0.00 0.00 471.50 172.00" xmlns="http://www.w3.org/2000/svg" xmlns:xlink="http://www.w3.org/1999/xlink"><g id="graph0" class="graph" transform="scale(1 1) rotate(0) translate(4 168)"><title>G</title><polygon fill="#ffffff" stroke="transparent" points="-4,4 -4,-168 467.5,-168 467.5,4 -4,4"/><!-- Request --><g id="node1" class="node"><title>Request</title><polygon fill="#ed6a5a" stroke="transparent" points="204,-146 204,-160 292,-160 292,-146 204,-146"/><polygon fill="none" stroke="#ed6a5a" points="204,-146 204,-160 292,-160 292,-146 204,-146"/><text text-anchor="start" x="231.1973" y="-150.6" font-family="Courier,monospace" font-size="8.00" fill="#ffffff">Request</text><polygon fill="#dddddd" stroke="transparent" points="204,-98 204,-146 292,-146 292,-98 204,-98"/><polygon fill="none" stroke="#dddddd" points="204,-98 204,-146 292,-146 292,-98 204,-98"/><text text-anchor="start" x="206.5933" y="-139.2" font-family="Courier,monospace" font-size="6.00" fill="#8b0000"> &#45; </text><text text-anchor="start" x="217.395" y="-139.2" font-family="Courier,monospace" font-size="6.00" fill="#000000">sender &#160;&#160;</text><text text-anchor="start" x="249.8003" y="-139.2" font-family="Courier,monospace" font-weight="bold" font-size="6.00" fill="#000000"> &#160;: string </text><text text-anchor="start" x="206.5933" y="-133.2" font-family="Courier,monospace" font-size="6.00" fill="#8b0000"> &#45; </text><text text-anchor="start" x="217.395" y="-133.2" font-family="Courier,monospace" font-size="6.00" fill="#000000">requestor</text><text text-anchor="start" x="249.8003" y="-133.2" font-family="Courier,monospace" font-weight="bold" font-size="6.00" fill="#000000"> &#160;: string </text><text text-anchor="start" x="206.5933" y="-127.2" font-family="Courier,monospace" font-size="6.00" fill="#8b0000"> &#45; </text><text text-anchor="start" x="217.395" y="-127.2" font-family="Courier,monospace" font-size="6.00" fill="#000000">abn &#160;&#160;&#160;&#160;&#160;</text><text text-anchor="start" x="249.8003" y="-127.2" font-family="Courier,monospace" font-weight="bold" font-size="6.00" fill="#000000"> &#160;: string </text><text text-anchor="start" x="206.5933" y="-121.2" font-family="Courier,monospace" font-size="6.00" fill="#8b0000"> &#45; </text><text text-anchor="start" x="217.395" y="-121.2" font-family="Courier,monospace" font-size="6.00" fill="#000000">action &#160;&#160;</text><text text-anchor="start" x="249.8003" y="-121.2" font-family="Courier,monospace" font-weight="bold" font-size="6.00" fill="#000000"> &#160;: string </text><text text-anchor="start" x="206.5933" y="-115.2" font-family="Courier,monospace" font-size="6.00" fill="#8b0000"> &#45; </text><text text-anchor="start" x="217.395" y="-115.2" font-family="Courier,monospace" font-size="6.00" fill="#000000">person &#160;&#160;</text><text text-anchor="start" x="249.8003" y="-115.2" font-family="Courier,monospace" font-weight="bold" font-size="6.00" fill="#000000"> &#160;: Person </text><text text-anchor="start" x="206.5933" y="-109.2" font-family="Courier,monospace" font-size="6.00" fill="#8b0000"> &#45; </text><text text-anchor="start" x="217.395" y="-109.2" font-family="Courier,monospace" font-size="6.00" fill="#000000">address &#160;</text><text text-anchor="start" x="249.8003" y="-109.2" font-family="Courier,monospace" font-weight="bold" font-size="6.00" fill="#000000"> &#160;: Address</text><text text-anchor="start" x="206.5933" y="-103.2" font-family="Courier,monospace" font-size="6.00" fill="#8b0000"> &#45; </text><text text-anchor="start" x="217.395" y="-103.2" font-family="Courier,monospace" font-size="6.00" fill="#000000">account &#160;</text><text text-anchor="start" x="249.8003" y="-103.2" font-family="Courier,monospace" font-weight="bold" font-size="6.00" fill="#000000"> &#160;: Account</text></g><!-- Account --><g id="node2" class="node"><title>Account</title><polygon fill="#68afcb" stroke="transparent" points="8,-43 8,-57 122,-57 122,-43 8,-43"/><polygon fill="none" stroke="#68afcb" points="8,-43 8,-57 122,-57 122,-43 8,-43"/><text text-anchor="start" x="48.1973" y="-47.6" font-family="Courier,monospace" font-size="8.00" fill="#ffffff">Account</text><polygon fill="#dddddd" stroke="transparent" points="8,-13 8,-43 122,-43 122,-13 8,-13"/><polygon fill="none" stroke="#dddddd" points="8,-13 8,-43 122,-43 122,-13 8,-13"/><text text-anchor="start" x="10.9912" y="-36.2" font-family="Courier,monospace" font-size="6.00" fill="#8b0000"> &#45; </text><text text-anchor="start" x="21.793" y="-36.2" font-family="Courier,monospace" font-size="6.00" fill="#000000">accountNumber &#160;&#160;&#160;</text><text text-anchor="start" x="83.0029" y="-36.2" font-family="Courier,monospace" font-weight="bold" font-size="6.00" fill="#000000"> &#160;: string</text><text text-anchor="start" x="10.9912" y="-30.2" font-family="Courier,monospace" font-size="6.00" fill="#8b0000"> &#45; </text><text text-anchor="start" x="21.793" y="-30.2" font-family="Courier,monospace" font-size="6.00" fill="#000000">accountStatus &#160;&#160;&#160;</text><text text-anchor="start" x="83.0029" y="-30.2" font-family="Courier,monospace" font-weight="bold" font-size="6.00" fill="#000000"> &#160;: string</text><text text-anchor="start" x="10.9912" y="-24.2" font-family="Courier,monospace" font-size="6.00" fill="#8b0000"> &#45; </text><text text-anchor="start" x="21.793" y="-24.2" font-family="Courier,monospace" font-size="6.00" fill="#000000">accountStatusDate</text><text text-anchor="start" x="83.0029" y="-24.2" font-family="Courier,monospace" font-weight="bold" font-size="6.00" fill="#000000"> &#160;: string</text><text text-anchor="start" x="10.9912" y="-18.2" font-family="Courier,monospace" font-size="6.00" fill="#8b0000"> &#45; </text><text text-anchor="start" x="21.793" y="-18.2" font-family="Courier,monospace" font-size="6.00" fill="#000000">usi &#160;&#160;&#160;&#160;&#160;&#160;&#160;&#160;&#160;&#160;&#160;&#160;&#160;</text><text text-anchor="start" x="83.0029" y="-18.2" font-family="Courier,monospace" font-weight="bold" font-size="6.00" fill="#000000"> &#160;: string</text></g><!-- Account&#45;&gt;Request --><g id="edge3" class="edge"><title>Account&#45;&gt;Request</title><path fill="none" stroke="#000000" d="M115.9757,-61.1842C138.0135,-72.5042 163.9816,-85.843 187.0304,-97.6823"/><polygon fill="#000000" stroke="#000000" points="187.1676,-97.7527 192.8994,-97.0994 195.7069,-102.1391 189.9751,-102.7923 187.1676,-97.7527"/></g><!-- Person --><g id="node3" class="node"><title>Person</title><polygon fill="#68afcb" stroke="transparent" points="200,-52 200,-66 296,-66 296,-52 200,-52"/><polygon fill="none" stroke="#68afcb" points="200,-52 200,-66 296,-66 296,-52 200,-52"/><text text-anchor="start" x="233.5977" y="-56.6" font-family="Courier,monospace" font-size="8.00" fill="#ffffff">Person</text><polygon fill="#dddddd" stroke="transparent" points="200,-4 200,-52 296,-52 296,-4 200,-4"/><polygon fill="none" stroke="#dddddd" points="200,-4 200,-52 296,-52 296,-4 200,-4"/><text text-anchor="start" x="202.9927" y="-45.2" font-family="Courier,monospace" font-size="6.00" fill="#8b0000"> &#45; </text><text text-anchor="start" x="213.7944" y="-45.2" font-family="Courier,monospace" font-size="6.00" fill="#000000">tfn &#160;&#160;&#160;&#160;&#160;&#160;&#160;&#160;</text><text text-anchor="start" x="257.0015" y="-45.2" font-family="Courier,monospace" font-weight="bold" font-size="6.00" fill="#000000"> &#160;: string</text><text text-anchor="start" x="202.9927" y="-39.2" font-family="Courier,monospace" font-size="6.00" fill="#8b0000"> &#45; </text><text text-anchor="start" x="213.7944" y="-39.2" font-family="Courier,monospace" font-size="6.00" fill="#000000">dayOfBirth &#160;</text><text text-anchor="start" x="257.0015" y="-39.2" font-family="Courier,monospace" font-weight="bold" font-size="6.00" fill="#000000"> &#160;: string</text><text text-anchor="start" x="202.9927" y="-33.2" font-family="Courier,monospace" font-size="6.00" fill="#8b0000"> &#45; </text><text text-anchor="start" x="213.7944" y="-33.2" font-family="Courier,monospace" font-size="6.00" fill="#000000">monthOfBirth</text><text text-anchor="start" x="257.0015" y="-33.2" font-family="Courier,monospace" font-weight="bold" font-size="6.00" fill="#000000"> &#160;: string</text><text text-anchor="start" x="202.9927" y="-27.2" font-family="Courier,monospace" font-size="6.00" fill="#8b0000"> &#45; </text><text text-anchor="start" x="213.7944" y="-27.2" font-family="Courier,monospace" font-size="6.00" fill="#000000">yearOfBirth </text><text text-anchor="start" x="257.0015" y="-27.2" font-family="Courier,monospace" font-weight="bold" font-size="6.00" fill="#000000"> &#160;: string</text><text text-anchor="start" x="202.9927" y="-21.2" font-family="Courier,monospace" font-size="6.00" fill="#8b0000"> &#45; </text><text text-anchor="start" x="213.7944" y="-21.2" font-family="Courier,monospace" font-size="6.00" fill="#000000">surname &#160;&#160;&#160;&#160;</text><text text-anchor="start" x="257.0015" y="-21.2" font-family="Courier,monospace" font-weight="bold" font-size="6.00" fill="#000000"> &#160;: string</text><text text-anchor="start" x="202.9927" y="-15.2" font-family="Courier,monospace" font-size="6.00" fill="#8b0000"> &#45; </text><text text-anchor="start" x="213.7944" y="-15.2" font-family="Courier,monospace" font-size="6.00" fill="#000000">givenName &#160;&#160;</text><text text-anchor="start" x="257.0015" y="-15.2" font-family="Courier,monospace" font-weight="bold" font-size="6.00" fill="#000000"> &#160;: string</text><text text-anchor="start" x="202.9927" y="-9.2" font-family="Courier,monospace" font-size="6.00" fill="#8b0000"> &#45; </text><text text-anchor="start" x="213.7944" y="-9.2" font-family="Courier,monospace" font-size="6.00" fill="#000000">middleName &#160;</text><text text-anchor="start" x="257.0015" y="-9.2" font-family="Courier,monospace" font-weight="bold" font-size="6.00" fill="#000000"> &#160;: string</text></g><!-- Person&#45;&gt;Request --><g id="edge1" class="edge"><title>Person&#45;&gt;Request</title><path fill="none" stroke="#000000" d="M248,-70.0021C248,-74.651 248,-79.4678 248,-84.2533"/><polygon fill="#000000" stroke="#000000" points="248.0001,-84.3686 251.2,-89.1687 248,-93.9686 244.8,-89.1686 248.0001,-84.3686"/></g><!-- Address --><g id="node4" class="node"><title>Address</title><polygon fill="#68afcb" stroke="transparent" points="375,-49 375,-63 456,-63 456,-49 375,-49"/><polygon fill="none" stroke="#68afcb" points="375,-49 375,-63 456,-63 456,-49 375,-49"/><text text-anchor="start" x="398.6973" y="-53.6" font-family="Courier,monospace" font-size="8.00" fill="#ffffff">Address</text><polygon fill="#dddddd" stroke="transparent" points="375,-7 375,-49 456,-49 456,-7 375,-7"/><polygon fill="none" stroke="#dddddd" points="375,-7 375,-49 456,-49 456,-7 375,-7"/><text text-anchor="start" x="377.6938" y="-42.2" font-family="Courier,monospace" font-size="6.00" fill="#8b0000"> &#45; </text><text text-anchor="start" x="388.4956" y="-42.2" font-family="Courier,monospace" font-size="6.00" fill="#000000">line1 &#160;&#160;</text><text text-anchor="start" x="417.3003" y="-42.2" font-family="Courier,monospace" font-weight="bold" font-size="6.00" fill="#000000"> &#160;: string</text><text text-anchor="start" x="377.6938" y="-36.2" font-family="Courier,monospace" font-size="6.00" fill="#8b0000"> &#45; </text><text text-anchor="start" x="388.4956" y="-36.2" font-family="Courier,monospace" font-size="6.00" fill="#000000">line2 &#160;&#160;</text><text text-anchor="start" x="417.3003" y="-36.2" font-family="Courier,monospace" font-weight="bold" font-size="6.00" fill="#000000"> &#160;: string</text><text text-anchor="start" x="377.6938" y="-30.2" font-family="Courier,monospace" font-size="6.00" fill="#8b0000"> &#45; </text><text text-anchor="start" x="388.4956" y="-30.2" font-family="Courier,monospace" font-size="6.00" fill="#000000">suburb &#160;</text><text text-anchor="start" x="417.3003" y="-30.2" font-family="Courier,monospace" font-weight="bold" font-size="6.00" fill="#000000"> &#160;: string</text><text text-anchor="start" x="377.6938" y="-24.2" font-family="Courier,monospace" font-size="6.00" fill="#8b0000"> &#45; </text><text text-anchor="start" x="388.4956" y="-24.2" font-family="Courier,monospace" font-size="6.00" fill="#000000">postcode</text><text text-anchor="start" x="417.3003" y="-24.2" font-family="Courier,monospace" font-weight="bold" font-size="6.00" fill="#000000"> &#160;: string</text><text text-anchor="start" x="377.6938" y="-18.2" font-family="Courier,monospace" font-size="6.00" fill="#8b0000"> &#45; </text><text text-anchor="start" x="388.4956" y="-18.2" font-family="Courier,monospace" font-size="6.00" fill="#000000">state &#160;&#160;</text><text text-anchor="start" x="417.3003" y="-18.2" font-family="Courier,monospace" font-weight="bold" font-size="6.00" fill="#000000"> &#160;: string</text><text text-anchor="start" x="377.6938" y="-12.2" font-family="Courier,monospace" font-size="6.00" fill="#8b0000"> &#45; </text><text text-anchor="start" x="388.4956" y="-12.2" font-family="Courier,monospace" font-size="6.00" fill="#000000">country </text><text text-anchor="start" x="417.3003" y="-12.2" font-family="Courier,monospace" font-weight="bold" font-size="6.00" fill="#000000"> &#160;: string</text></g><!-- Address&#45;&gt;Request --><g id="edge2" class="edge"><title>Address&#45;&gt;Request</title><path fill="none" stroke="#000000" d="M366.2478,-62.4414C348.2144,-72.5919 327.5493,-84.2237 308.5917,-94.8945"/><polygon fill="#000000" stroke="#000000" points="308.383,-95.0119 305.7698,-100.155 300.0172,-99.7209 302.6305,-94.5778 308.383,-95.0119"/></g></g></svg>