<?xml version="1.0" encoding="UTF-8" standalone="no"?><!DOCTYPE svg PUBLIC "-//W3C//DTD SVG 1.1//EN" "http://www.w3.org/Graphics/SVG/1.1/DTD/svg11.dtd"><!-- Generated by graphviz version 2.38.0 (20140413.2041) --><!-- Title: G Pages: 1 --><svg width="490pt" height="174pt" viewBox="0.00 0.00 489.50 174.00" xmlns="http://www.w3.org/2000/svg" xmlns:xlink="http://www.w3.org/1999/xlink"><g id="graph0" class="graph" transform="scale(1 1) rotate(0) translate(4 170)"><title>G</title><polygon fill="white" stroke="none" points="-4,4 -4,-170 485.5,-170 485.5,4 -4,4"/><!-- Request --><g id="node1" class="node"><title>Request</title><polygon fill="#ed6a5a" stroke="none" points="210,-146.5 210,-161.5 304,-161.5 304,-146.5 210,-146.5"/><polygon fill="none" stroke="#ed6a5a" points="210,-146.5 210,-161.5 304,-161.5 304,-146.5 210,-146.5"/><text text-anchor="start" x="241" y="-152.1" font-family="Courier,monospace" font-size="8.00" fill="white">Request</text><polygon fill="#dddddd" stroke="none" points="210,-98.5 210,-146.5 304,-146.5 304,-98.5 210,-98.5"/><polygon fill="none" stroke="#dddddd" points="210,-98.5 210,-146.5 304,-146.5 304,-98.5 210,-98.5"/><text text-anchor="start" x="213" y="-139.7" font-family="Courier,monospace" font-size="6.00" fill="#8b0000"> &#45; </text><text text-anchor="start" x="225" y="-139.7" font-family="Courier,monospace" font-size="6.00">sender &#160;&#160;</text><text text-anchor="start" x="259" y="-139.7" font-family="Courier,monospace" font-weight="bold" font-size="6.00"> &#160;: string </text><text text-anchor="start" x="213" y="-133.7" font-family="Courier,monospace" font-size="6.00" fill="#8b0000"> &#45; </text><text text-anchor="start" x="225" y="-133.7" font-family="Courier,monospace" font-size="6.00">requestor</text><text text-anchor="start" x="259" y="-133.7" font-family="Courier,monospace" font-weight="bold" font-size="6.00"> &#160;: string </text><text text-anchor="start" x="213" y="-127.7" font-family="Courier,monospace" font-size="6.00" fill="#8b0000"> &#45; </text><text text-anchor="start" x="225" y="-127.7" font-family="Courier,monospace" font-size="6.00">abn &#160;&#160;&#160;&#160;&#160;</text><text text-anchor="start" x="259" y="-127.7" font-family="Courier,monospace" font-weight="bold" font-size="6.00"> &#160;: string </text><text text-anchor="start" x="213" y="-121.7" font-family="Courier,monospace" font-size="6.00" fill="#8b0000"> &#45; </text><text text-anchor="start" x="225" y="-121.7" font-family="Courier,monospace" font-size="6.00">action &#160;&#160;</text><text text-anchor="start" x="259" y="-121.7" font-family="Courier,monospace" font-weight="bold" font-size="6.00"> &#160;: string </text><text text-anchor="start" x="213" y="-115.7" font-family="Courier,monospace" font-size="6.00" fill="#8b0000"> &#45; </text><text text-anchor="start" x="225" y="-115.7" font-family="Courier,monospace" font-size="6.00">person &#160;&#160;</text><text text-anchor="start" x="259" y="-115.7" font-family="Courier,monospace" font-weight="bold" font-size="6.00"> &#160;: Person </text><text text-anchor="start" x="213" y="-109.7" font-family="Courier,monospace" font-size="6.00" fill="#8b0000"> &#45; </text><text text-anchor="start" x="225" y="-109.7" font-family="Courier,monospace" font-size="6.00">address &#160;</text><text text-anchor="start" x="259" y="-109.7" font-family="Courier,monospace" font-weight="bold" font-size="6.00"> &#160;: Address</text><text text-anchor="start" x="213" y="-103.7" font-family="Courier,monospace" font-size="6.00" fill="#8b0000"> &#45; </text><text text-anchor="start" x="225" y="-103.7" font-family="Courier,monospace" font-size="6.00">account &#160;</text><text text-anchor="start" x="259" y="-103.7" font-family="Courier,monospace" font-weight="bold" font-size="6.00"> &#160;: Account</text></g><!-- Account --><g id="node2" class="node"><title>Account</title><polygon fill="#68afcb" stroke="none" points="8,-42.5 8,-57.5 128,-57.5 128,-42.5 8,-42.5"/><polygon fill="none" stroke="#68afcb" points="8,-42.5 8,-57.5 128,-57.5 128,-42.5 8,-42.5"/><text text-anchor="start" x="52" y="-48.1" font-family="Courier,monospace" font-size="8.00" fill="white">Account</text><polygon fill="#dddddd" stroke="none" points="8,-12.5 8,-42.5 128,-42.5 128,-12.5 8,-12.5"/><polygon fill="none" stroke="#dddddd" points="8,-12.5 8,-42.5 128,-42.5 128,-12.5 8,-12.5"/><text text-anchor="start" x="11" y="-35.7" font-family="Courier,monospace" font-size="6.00" fill="#8b0000"> &#45; </text><text text-anchor="start" x="23" y="-35.7" font-family="Courier,monospace" font-size="6.00">accountNumber &#160;&#160;&#160;</text><text text-anchor="start" x="87" y="-35.7" font-family="Courier,monospace" font-weight="bold" font-size="6.00"> &#160;: string</text><text text-anchor="start" x="11" y="-29.7" font-family="Courier,monospace" font-size="6.00" fill="#8b0000"> &#45; </text><text text-anchor="start" x="23" y="-29.7" font-family="Courier,monospace" font-size="6.00">accountStatus &#160;&#160;&#160;</text><text text-anchor="start" x="87" y="-29.7" font-family="Courier,monospace" font-weight="bold" font-size="6.00"> &#160;: string</text><text text-anchor="start" x="11" y="-23.7" font-family="Courier,monospace" font-size="6.00" fill="#8b0000"> &#45; </text><text text-anchor="start" x="23" y="-23.7" font-family="Courier,monospace" font-size="6.00">accountStatusDate</text><text text-anchor="start" x="87" y="-23.7" font-family="Courier,monospace" font-weight="bold" font-size="6.00"> &#160;: string</text><text text-anchor="start" x="11" y="-17.7" font-family="Courier,monospace" font-size="6.00" fill="#8b0000"> &#45; </text><text text-anchor="start" x="23" y="-17.7" font-family="Courier,monospace" font-size="6.00">usi &#160;&#160;&#160;&#160;&#160;&#160;&#160;&#160;&#160;&#160;&#160;&#160;&#160;</text><text text-anchor="start" x="87" y="-17.7" font-family="Courier,monospace" font-weight="bold" font-size="6.00"> &#160;: string</text></g><!-- Account&#45;&gt;Request --><g id="edge3" class="edge"><title>Account&#45;&gt;Request</title><path fill="none" stroke="black" d="M119.895,-62.0357C142.572,-73.1944 169.39,-86.3902 193.266,-98.1388"/><polygon fill="black" stroke="black" points="193.303,-98.1567 199.022,-97.4048 201.916,-102.395 196.197,-103.147 193.303,-98.1567"/></g><!-- Person --><g id="node3" class="node"><title>Person</title><polygon fill="#68afcb" stroke="none" points="206,-51.5 206,-66.5 308,-66.5 308,-51.5 206,-51.5"/><polygon fill="none" stroke="#68afcb" points="206,-51.5 206,-66.5 308,-66.5 308,-51.5 206,-51.5"/><text text-anchor="start" x="243" y="-57.1" font-family="Courier,monospace" font-size="8.00" fill="white">Person</text><polygon fill="#dddddd" stroke="none" points="206,-3.5 206,-51.5 308,-51.5 308,-3.5 206,-3.5"/><polygon fill="none" stroke="#dddddd" points="206,-3.5 206,-51.5 308,-51.5 308,-3.5 206,-3.5"/><text text-anchor="start" x="209" y="-44.7" font-family="Courier,monospace" font-size="6.00" fill="#8b0000"> &#45; </text><text text-anchor="start" x="221" y="-44.7" font-family="Courier,monospace" font-size="6.00">tfn &#160;&#160;&#160;&#160;&#160;&#160;&#160;&#160;</text><text text-anchor="start" x="267" y="-44.7" font-family="Courier,monospace" font-weight="bold" font-size="6.00"> &#160;: string</text><text text-anchor="start" x="209" y="-38.7" font-family="Courier,monospace" font-size="6.00" fill="#8b0000"> &#45; </text><text text-anchor="start" x="221" y="-38.7" font-family="Courier,monospace" font-size="6.00">dayOfBirth &#160;</text><text text-anchor="start" x="267" y="-38.7" font-family="Courier,monospace" font-weight="bold" font-size="6.00"> &#160;: string</text><text text-anchor="start" x="209" y="-32.7" font-family="Courier,monospace" font-size="6.00" fill="#8b0000"> &#45; </text><text text-anchor="start" x="221" y="-32.7" font-family="Courier,monospace" font-size="6.00">monthOfBirth</text><text text-anchor="start" x="267" y="-32.7" font-family="Courier,monospace" font-weight="bold" font-size="6.00"> &#160;: string</text><text text-anchor="start" x="209" y="-26.7" font-family="Courier,monospace" font-size="6.00" fill="#8b0000"> &#45; </text><text text-anchor="start" x="221" y="-26.7" font-family="Courier,monospace" font-size="6.00">yearOfBirth </text><text text-anchor="start" x="267" y="-26.7" font-family="Courier,monospace" font-weight="bold" font-size="6.00"> &#160;: string</text><text text-anchor="start" x="209" y="-20.7" font-family="Courier,monospace" font-size="6.00" fill="#8b0000"> &#45; </text><text text-anchor="start" x="221" y="-20.7" font-family="Courier,monospace" font-size="6.00">surname &#160;&#160;&#160;&#160;</text><text text-anchor="start" x="267" y="-20.7" font-family="Courier,monospace" font-weight="bold" font-size="6.00"> &#160;: string</text><text text-anchor="start" x="209" y="-14.7" font-family="Courier,monospace" font-size="6.00" fill="#8b0000"> &#45; </text><text text-anchor="start" x="221" y="-14.7" font-family="Courier,monospace" font-size="6.00">givenName &#160;&#160;</text><text text-anchor="start" x="267" y="-14.7" font-family="Courier,monospace" font-weight="bold" font-size="6.00"> &#160;: string</text><text text-anchor="start" x="209" y="-8.7" font-family="Courier,monospace" font-size="6.00" fill="#8b0000"> &#45; </text><text text-anchor="start" x="221" y="-8.7" font-family="Courier,monospace" font-size="6.00">middleName &#160;</text><text text-anchor="start" x="267" y="-8.7" font-family="Courier,monospace" font-weight="bold" font-size="6.00"> &#160;: string</text></g><!-- Person&#45;&gt;Request --><g id="edge1" class="edge"><title>Person&#45;&gt;Request</title><path fill="none" stroke="black" d="M257,-71.1298C257,-75.7292 257,-80.4947 257,-85.2293"/><polygon fill="black" stroke="black" points="257,-85.2413 260.2,-90.0413 257,-94.8413 253.8,-90.0413 257,-85.2413"/></g><!-- Address --><g id="node4" class="node"><title>Address</title><polygon fill="#68afcb" stroke="none" points="387,-48.5 387,-63.5 474,-63.5 474,-48.5 387,-48.5"/><polygon fill="none" stroke="#68afcb" points="387,-48.5 387,-63.5 474,-63.5 474,-48.5 387,-48.5"/><text text-anchor="start" x="414.5" y="-54.1" font-family="Courier,monospace" font-size="8.00" fill="white">Address</text><polygon fill="#dddddd" stroke="none" points="387,-6.5 387,-48.5 474,-48.5 474,-6.5 387,-6.5"/><polygon fill="none" stroke="#dddddd" points="387,-6.5 387,-48.5 474,-48.5 474,-6.5 387,-6.5"/><text text-anchor="start" x="390" y="-41.7" font-family="Courier,monospace" font-size="6.00" fill="#8b0000"> &#45; </text><text text-anchor="start" x="402" y="-41.7" font-family="Courier,monospace" font-size="6.00">line1 &#160;&#160;</text><text text-anchor="start" x="433" y="-41.7" font-family="Courier,monospace" font-weight="bold" font-size="6.00"> &#160;: string</text><text text-anchor="start" x="390" y="-35.7" font-family="Courier,monospace" font-size="6.00" fill="#8b0000"> &#45; </text><text text-anchor="start" x="402" y="-35.7" font-family="Courier,monospace" font-size="6.00">line2 &#160;&#160;</text><text text-anchor="start" x="433" y="-35.7" font-family="Courier,monospace" font-weight="bold" font-size="6.00"> &#160;: string</text><text text-anchor="start" x="390" y="-29.7" font-family="Courier,monospace" font-size="6.00" fill="#8b0000"> &#45; </text><text text-anchor="start" x="402" y="-29.7" font-family="Courier,monospace" font-size="6.00">suburb &#160;</text><text text-anchor="start" x="433" y="-29.7" font-family="Courier,monospace" font-weight="bold" font-size="6.00"> &#160;: string</text><text text-anchor="start" x="390" y="-23.7" font-family="Courier,monospace" font-size="6.00" fill="#8b0000"> &#45; </text><text text-anchor="start" x="402" y="-23.7" font-family="Courier,monospace" font-size="6.00">postcode</text><text text-anchor="start" x="433" y="-23.7" font-family="Courier,monospace" font-weight="bold" font-size="6.00"> &#160;: string</text><text text-anchor="start" x="390" y="-17.7" font-family="Courier,monospace" font-size="6.00" fill="#8b0000"> &#45; </text><text text-anchor="start" x="402" y="-17.7" font-family="Courier,monospace" font-size="6.00">state &#160;&#160;</text><text text-anchor="start" x="433" y="-17.7" font-family="Courier,monospace" font-weight="bold" font-size="6.00"> &#160;: string</text><text text-anchor="start" x="390" y="-11.7" font-family="Courier,monospace" font-size="6.00" fill="#8b0000"> &#45; </text><text text-anchor="start" x="402" y="-11.7" font-family="Courier,monospace" font-size="6.00">country </text><text text-anchor="start" x="433" y="-11.7" font-family="Courier,monospace" font-weight="bold" font-size="6.00"> &#160;: string</text></g><!-- Address&#45;&gt;Request --><g id="edge2" class="edge"><title>Address&#45;&gt;Request</title><path fill="none" stroke="black" d="M378.094,-64.4031C360.056,-74.1001 339.614,-85.0891 320.731,-95.2401"/><polygon fill="black" stroke="black" points="320.634,-95.2919 317.922,-100.383 312.179,-99.8375 314.891,-94.7462 320.634,-95.2919"/></g></g></svg>