<?xml version="1.0" encoding="UTF-8" standalone="no"?><!DOCTYPE svg PUBLIC "-//W3C//DTD SVG 1.1//EN" "http://www.w3.org/Graphics/SVG/1.1/DTD/svg11.dtd"><!-- Generated by graphviz version 2.40.1 (20161225.0304) --><!-- Title: G Pages: 1 --><svg width="130pt" height="208pt" viewBox="0.00 0.00 130.00 208.00" xmlns="http://www.w3.org/2000/svg" xmlns:xlink="http://www.w3.org/1999/xlink"><g id="graph0" class="graph" transform="scale(1 1) rotate(0) translate(4 204)"><title>G</title><polygon fill="#ffffff" stroke="transparent" points="-4,4 -4,-204 126,-204 126,4 -4,4"/><!-- Request --><g id="node1" class="node"><title>Request</title><polygon fill="#ed6a5a" stroke="transparent" points="24,-182 24,-196 98,-196 98,-182 24,-182"/><polygon fill="none" stroke="#ed6a5a" points="24,-182 24,-196 98,-196 98,-182 24,-182"/><text text-anchor="start" x="44.1973" y="-186.6" font-family="Courier,monospace" font-size="8.00" fill="#ffffff">Request</text><polygon fill="#dddddd" stroke="transparent" points="24,-146 24,-182 98,-182 98,-146 24,-146"/><polygon fill="none" stroke="#dddddd" points="24,-146 24,-182 98,-182 98,-146 24,-146"/><text text-anchor="start" x="26.7944" y="-175.2" font-family="Courier,monospace" font-size="6.00" fill="#8b0000"> &#45; </text><text text-anchor="start" x="37.5962" y="-175.2" font-family="Courier,monospace" font-size="6.00" fill="#000000">sender</text><text text-anchor="start" x="59.1997" y="-175.2" font-family="Courier,monospace" font-weight="bold" font-size="6.00" fill="#000000"> &#160;: string</text><text text-anchor="start" x="26.7944" y="-169.2" font-family="Courier,monospace" font-size="6.00" fill="#8b0000"> &#45; </text><text text-anchor="start" x="37.5962" y="-169.2" font-family="Courier,monospace" font-size="6.00" fill="#000000">start </text><text text-anchor="start" x="59.1997" y="-169.2" font-family="Courier,monospace" font-weight="bold" font-size="6.00" fill="#000000"> &#160;: string</text><text text-anchor="start" x="26.7944" y="-163.2" font-family="Courier,monospace" font-size="6.00" fill="#8b0000"> &#45; </text><text text-anchor="start" x="37.5962" y="-163.2" font-family="Courier,monospace" font-size="6.00" fill="#000000">end &#160;&#160;</text><text text-anchor="start" x="59.1997" y="-163.2" font-family="Courier,monospace" font-weight="bold" font-size="6.00" fill="#000000"> &#160;: string</text><text text-anchor="start" x="26.7944" y="-157.2" font-family="Courier,monospace" font-size="6.00" fill="#8b0000"> &#45; </text><text text-anchor="start" x="37.5962" y="-157.2" font-family="Courier,monospace" font-size="6.00" fill="#000000">name &#160;</text><text text-anchor="start" x="59.1997" y="-157.2" font-family="Courier,monospace" font-weight="bold" font-size="6.00" fill="#000000"> &#160;: string</text><text text-anchor="start" x="26.7944" y="-151.2" font-family="Courier,monospace" font-size="6.00" fill="#8b0000"> &#45; </text><text text-anchor="start" x="37.5962" y="-151.2" font-family="Courier,monospace" font-size="6.00" fill="#000000">fund &#160;</text><text text-anchor="start" x="59.1997" y="-151.2" font-family="Courier,monospace" font-weight="bold" font-size="6.00" fill="#000000"> &#160;: Fund &#160;</text></g><!-- Fund --><g id="node2" class="node"><title>Fund</title><polygon fill="#68afcb" stroke="transparent" points="8,-100 8,-114 114,-114 114,-100 8,-100"/><polygon fill="none" stroke="#68afcb" points="8,-100 8,-114 114,-114 114,-100 8,-100"/><text text-anchor="start" x="51.3984" y="-104.6" font-family="Courier,monospace" font-size="8.00" fill="#ffffff">Fund</text><polygon fill="#dddddd" stroke="transparent" points="8,-64 8,-100 114,-100 114,-64 8,-64"/><polygon fill="none" stroke="#dddddd" points="8,-64 8,-100 114,-100 114,-64 8,-64"/><text text-anchor="start" x="10.5918" y="-93.2" font-family="Courier,monospace" font-size="6.00" fill="#8b0000"> &#45; </text><text text-anchor="start" x="21.3936" y="-93.2" font-family="Courier,monospace" font-size="6.00" fill="#000000">abn &#160;&#160;&#160;&#160;&#160;&#160;&#160;&#160;</text><text text-anchor="start" x="64.6006" y="-93.2" font-family="Courier,monospace" font-weight="bold" font-size="6.00" fill="#000000"> &#160;: string &#160;&#160;</text><text text-anchor="start" x="10.5918" y="-87.2" font-family="Courier,monospace" font-size="6.00" fill="#8b0000"> &#45; </text><text text-anchor="start" x="21.3936" y="-87.2" font-family="Courier,monospace" font-size="6.00" fill="#000000">name &#160;&#160;&#160;&#160;&#160;&#160;&#160;</text><text text-anchor="start" x="64.6006" y="-87.2" font-family="Courier,monospace" font-weight="bold" font-size="6.00" fill="#000000"> &#160;: string &#160;&#160;</text><text text-anchor="start" x="10.5918" y="-81.2" font-family="Courier,monospace" font-size="6.00" fill="#8b0000"> &#45; </text><text text-anchor="start" x="21.3936" y="-81.2" font-family="Courier,monospace" font-size="6.00" fill="#000000">ebms3Profile</text><text text-anchor="start" x="64.6006" y="-81.2" font-family="Courier,monospace" font-weight="bold" font-size="6.00" fill="#000000"> &#160;: string &#160;&#160;</text><text text-anchor="start" x="10.5918" y="-75.2" font-family="Courier,monospace" font-size="6.00" fill="#8b0000"> &#45; </text><text text-anchor="start" x="21.3936" y="-75.2" font-family="Courier,monospace" font-size="6.00" fill="#000000">version &#160;&#160;&#160;&#160;</text><text text-anchor="start" x="64.6006" y="-75.2" font-family="Courier,monospace" font-weight="bold" font-size="6.00" fill="#000000"> &#160;: string &#160;&#160;</text><text text-anchor="start" x="10.5918" y="-69.2" font-family="Courier,monospace" font-size="6.00" fill="#8b0000"> &#45; </text><text text-anchor="start" x="21.3936" y="-69.2" font-family="Courier,monospace" font-size="6.00" fill="#000000">product &#160;&#160;&#160;&#160;</text><text text-anchor="start" x="64.6006" y="-69.2" font-family="Courier,monospace" font-weight="bold" font-size="6.00" fill="#000000"> &#160;: Product[]</text></g><!-- Fund&#45;&gt;Request --><g id="edge1" class="edge"><title>Fund&#45;&gt;Request</title><path fill="none" stroke="#000000" d="M61,-118.141C61,-122.7329 61,-127.5418 61,-132.3091"/><polygon fill="#000000" stroke="#000000" points="61.0001,-132.3528 64.2,-137.1529 61,-141.9528 57.8,-137.1528 61.0001,-132.3528"/></g><!-- Product --><g id="node3" class="node"><title>Product</title><polygon fill="#68afcb" stroke="transparent" points="12,-17 12,-31 111,-31 111,-17 12,-17"/><polygon fill="none" stroke="#68afcb" points="12,-17 12,-31 111,-31 111,-17 12,-17"/><text text-anchor="start" x="44.6973" y="-21.6" font-family="Courier,monospace" font-size="8.00" fill="#ffffff">Product</text><polygon fill="#dddddd" stroke="transparent" points="12,-5 12,-17 111,-17 111,-5 12,-5"/><polygon fill="none" stroke="#dddddd" points="12,-5 12,-17 111,-17 111,-5 12,-5"/><text text-anchor="start" x="14.6924" y="-10.2" font-family="Courier,monospace" font-size="6.00" fill="#8b0000"> &#45; </text><text text-anchor="start" x="25.4941" y="-10.2" font-family="Courier,monospace" font-size="6.00" fill="#000000">restrictions</text><text text-anchor="start" x="68.7012" y="-10.2" font-family="Courier,monospace" font-weight="bold" font-size="6.00" fill="#000000"> &#160;: boolean</text></g><!-- Product&#45;&gt;Fund --><g id="edge2" class="edge"><title>Product&#45;&gt;Fund</title><path fill="none" stroke="#000000" d="M61,-36.2843C61,-40.5291 61,-45.2073 61,-49.971"/><polygon fill="#000000" stroke="#000000" points="61.0001,-50.1581 64.2,-54.9582 61,-59.7581 57.8,-54.9581 61.0001,-50.1581"/></g></g></svg>